<svg xmlns="http://www.w3.org/2000/svg" viewBox="0 0 30.67 23.249"><path fill="#5765ec" d="M26.0019,1.953c-2-.915-4.123-1.581-6.34-1.953-.279.48-.589,1.131-.806,1.643-2.357-.341-4.697-.341-7.022,0-.217-.512-.543-1.163-.806-1.643-2.232.372-4.356,1.038-6.341,1.953C.6729,7.874-.4121,13.655.1299,19.359c2.666,1.937,5.239,3.115,7.767,3.89.62-.837,1.178-1.736,1.658-2.681-.914-.341-1.782-.76-2.619-1.256.217-.155.434-.325.635-.496,5.053,2.31,10.526,2.31,15.517,0,.217.171.418.341.635.496-.837.496-1.705.915-2.619,1.256.48.945,1.038,1.844,1.658,2.681,2.527-.775,5.115-1.953,7.767-3.89.666-6.603-1.056-12.338-4.527-17.406ZM10.2529,15.84c-1.519,0-2.759-1.379-2.759-3.069,0-1.689,1.209-3.068,2.759-3.068,1.534,0,2.79,1.379,2.759,3.068,0,1.69-1.225,3.069-2.759,3.069ZM20.4369,15.84c-1.519,0-2.76-1.379-2.76-3.069,0-1.689,1.21-3.068,2.76-3.068,1.535,0,2.79,1.379,2.759,3.068,0,1.69-1.209,3.069-2.759,3.069Z"/></svg>